<svg xmlns="http://www.w3.org/2000/svg" viewBox="0 0 390 844" width="390" height="844" font-family="Segoe UI,system-ui,sans-serif">
<defs>
<linearGradient id="bg" x1="0" y1="0" x2="0" y2="1"><stop offset="0" stop-color="#13205a"/><stop offset="1" stop-color="#070b18"/></linearGradient>
<linearGradient id="acc" x1="0" y1="0" x2="1" y2="0"><stop offset="0" stop-color="#28e0ff"/><stop offset="1" stop-color="#7c5cff"/></linearGradient>
<linearGradient id="title" x1="0" y1="0" x2="1" y2="0"><stop offset="0" stop-color="#28e0ff"/><stop offset="1" stop-color="#ff9d4a"/></linearGradient>
</defs>
<rect x="0" y="0" width="390" height="844" rx="22" fill="url(#bg)"/>
<rect x="1" y="1" width="388" height="842" rx="22" fill="none" stroke="#33406e" stroke-width="2"/>
<rect x="0" y="0" width="390" height="56" rx="0" fill="#0a0f22" stroke="#2a3566" stroke-width="1" opacity="1"/><rect x="12" y="11" width="34" height="34" rx="9" fill="#7c5cff" opacity="1"/><text x="29" y="33" font-size="16" fill="#e8edff" text-anchor="middle" font-weight="400">⛓️</text><rect x="56" y="12" width="118" height="32" rx="9" fill="#161d3b" stroke="#2a3566" stroke-width="1" opacity="1"/><rect x="58" y="14" width="38" height="28" rx="7" fill="url(#acc)" opacity="1"/><text x="77" y="32" font-size="11" fill="#fff" text-anchor="middle" font-weight="700">Low</text><text x="115" y="32" font-size="11" fill="#9aa6d6" text-anchor="middle" font-weight="700">Med</text><text x="153" y="32" font-size="11" fill="#9aa6d6" text-anchor="middle" font-weight="700">High</text><rect x="240" y="11" width="34" height="34" rx="10" fill="#ffce4a" opacity="1"/><text x="257" y="33" font-size="16" fill="#1a1300" text-anchor="middle" font-weight="800">3</text><rect x="282" y="11" width="44" height="34" rx="9" fill="#161d3b" stroke="#2a3566" stroke-width="1" opacity="1"/><text x="304" y="33" font-size="16" fill="#e8edff" text-anchor="middle" font-weight="400">⇄</text><rect x="332" y="11" width="44" height="34" rx="9" fill="#161d3b" stroke="#2a3566" stroke-width="1" opacity="1"/><text x="354" y="33" font-size="15" fill="#e8edff" text-anchor="middle" font-weight="400">🏆</text><path d="M195,150 C195,200 130,210 130,260" stroke="#28e0ff" stroke-width="2.5" fill="none" stroke-dasharray="8 6"/><path d="M195,150 C195,200 260,210 260,260" stroke="#28e0ff" stroke-width="2.5" fill="none" stroke-dasharray="8 6"/><path d="M130,260 C130,320 110,330 110,380" stroke="#33406e" stroke-width="2.5" fill="none"/><path d="M130,260 C130,320 200,330 200,380" stroke="#33406e" stroke-width="2.5" fill="none"/><path d="M260,260 C260,320 285,330 285,380" stroke="#33406e" stroke-width="2.5" fill="none"/><circle cx="195" cy="118" r="34" fill="none" stroke="#ffce4a" stroke-width="2" opacity="0.5"/><circle cx="195" cy="118" r="30" fill="#16204a" stroke="#ffce4a" stroke-width="2.5"/><text x="195" y="125" font-size="20" fill="#e8edff" text-anchor="middle" font-weight="400">🗄️</text><text x="195" y="164" font-size="10" fill="#e8edff" text-anchor="middle" font-weight="700">Tables</text><circle cx="130" cy="260" r="34" fill="none" stroke="#ffce4a" stroke-width="2" opacity="0.5"/><circle cx="130" cy="260" r="30" fill="#16204a" stroke="#ffce4a" stroke-width="2.5"/><text x="130" y="267" font-size="20" fill="#e8edff" text-anchor="middle" font-weight="400">🎯</text><text x="130" y="306" font-size="10" fill="#e8edff" text-anchor="middle" font-weight="700">SELECT</text><circle cx="260" cy="260" r="34" fill="none" stroke="#28e0ff" stroke-width="2" opacity="0.5"/><circle cx="260" cy="260" r="30" fill="#16204a" stroke="#28e0ff" stroke-width="2.5"/><text x="260" y="267" font-size="20" fill="#e8edff" text-anchor="middle" font-weight="400">🧱</text><text x="260" y="306" font-size="10" fill="#e8edff" text-anchor="middle" font-weight="700">Rows</text><circle cx="110" cy="400" r="34" fill="none" stroke="#28e0ff" stroke-width="2" opacity="0.5"/><circle cx="110" cy="400" r="30" fill="#16204a" stroke="#28e0ff" stroke-width="2.5"/><text x="110" y="407" font-size="20" fill="#e8edff" text-anchor="middle" font-weight="400">🔍</text><text x="110" y="446" font-size="10" fill="#e8edff" text-anchor="middle" font-weight="700">WHERE</text><circle cx="200" cy="400" r="34" fill="none" stroke="#39406a" stroke-width="2" opacity="0.5"/><circle cx="200" cy="400" r="30" fill="#16204a" stroke="#39406a" stroke-width="2.5"/><text x="200" y="407" font-size="20" fill="#e8edff" text-anchor="middle" font-weight="400">↕️</text><text x="200" y="446" font-size="10" fill="#9aa6d6" text-anchor="middle" font-weight="700">ORDER BY</text><circle cx="285" cy="400" r="34" fill="none" stroke="#39406a" stroke-width="2" opacity="0.5"/><circle cx="285" cy="400" r="30" fill="#16204a" stroke="#39406a" stroke-width="2.5"/><text x="285" y="407" font-size="20" fill="#e8edff" text-anchor="middle" font-weight="400">🧬</text><text x="285" y="446" font-size="10" fill="#9aa6d6" text-anchor="middle" font-weight="700">DISTINCT</text><circle cx="150" cy="540" r="34" fill="none" stroke="#39406a" stroke-width="2" opacity="0.5"/><circle cx="150" cy="540" r="30" fill="#16204a" stroke="#39406a" stroke-width="2.5"/><text x="150" y="547" font-size="20" fill="#e8edff" text-anchor="middle" font-weight="400">🔗</text><text x="150" y="586" font-size="10" fill="#9aa6d6" text-anchor="middle" font-weight="700">JOINS</text><circle cx="265" cy="540" r="34" fill="none" stroke="#39406a" stroke-width="2" opacity="0.5"/><circle cx="265" cy="540" r="30" fill="#16204a" stroke="#39406a" stroke-width="2.5"/><text x="265" y="547" font-size="20" fill="#e8edff" text-anchor="middle" font-weight="400">➗</text><text x="265" y="586" font-size="10" fill="#9aa6d6" text-anchor="middle" font-weight="700">Aggreg.</text><rect x="12" y="694" width="210" height="40" rx="20" fill="#121a36" stroke="#2a3566" stroke-width="1" opacity="1"/><text x="24" y="719" font-size="11" fill="#e8edff" text-anchor="start" font-weight="400">🧭 Next: WHERE · +40 XP</text><rect x="168" y="699" width="46" height="30" rx="16" fill="url(#acc)" opacity="1"/><text x="191" y="718" font-size="12" fill="#fff" text-anchor="middle" font-weight="700">Go</text><rect x="334" y="694" width="44" height="44" rx="10" fill="#121a36" stroke="#2a3566" stroke-width="1" opacity="1"/><text x="356" y="722" font-size="16" fill="#e8edff" text-anchor="middle" font-weight="400">＋</text><rect x="334" y="746" width="44" height="44" rx="10" fill="#121a36" stroke="#2a3566" stroke-width="1" opacity="1"/><text x="356" y="774" font-size="16" fill="#e8edff" text-anchor="middle" font-weight="400">－</text><rect x="334" y="798" width="44" height="44" rx="10" fill="#121a36" stroke="#2a3566" stroke-width="1" opacity="1"/><text x="356" y="826" font-size="16" fill="#e8edff" text-anchor="middle" font-weight="400">⊙</text>
<rect x="0" y="824" width="390" height="20" fill="#000" opacity="0.0"/>
<text x="380" y="836" font-size="9" fill="#46507a" text-anchor="end">mockup · skill tree 390×844</text>
</svg>