<svg xmlns="http://www.w3.org/2000/svg" viewBox="0 0 390 844" width="390" height="844" font-family="Segoe UI,system-ui,sans-serif">
<defs>
<linearGradient id="bg" x1="0" y1="0" x2="0" y2="1"><stop offset="0" stop-color="#13205a"/><stop offset="1" stop-color="#070b18"/></linearGradient>
<linearGradient id="acc" x1="0" y1="0" x2="1" y2="0"><stop offset="0" stop-color="#28e0ff"/><stop offset="1" stop-color="#7c5cff"/></linearGradient>
<linearGradient id="title" x1="0" y1="0" x2="1" y2="0"><stop offset="0" stop-color="#28e0ff"/><stop offset="1" stop-color="#ff9d4a"/></linearGradient>
</defs>
<rect x="0" y="0" width="390" height="844" rx="22" fill="url(#bg)"/>
<rect x="1" y="1" width="388" height="842" rx="22" fill="none" stroke="#33406e" stroke-width="2"/>
<rect x="0" y="0" width="390" height="844" rx="0" fill="#0d142c" opacity="1"/><rect x="0" y="0" width="390" height="72" rx="0" fill="#15224a" opacity="1"/><text x="18" y="46" font-size="26" fill="#e8edff" text-anchor="start" font-weight="400">🔗</text><text x="54" y="40" font-size="18" fill="#e8edff" text-anchor="start" font-weight="800">JOINS</text><text x="54" y="60" font-size="10" fill="#9aa6d6" text-anchor="start" font-weight="400">★★★★★  🎚️ Hard  ⭐ 80 XP  0% mastered</text><rect x="340" y="16" width="40" height="40" rx="9" fill="#0d142c" stroke="#2a3566" stroke-width="1" opacity="1"/><text x="360" y="42" font-size="20" fill="#9aa6d6" text-anchor="middle" font-weight="400">✕</text><rect x="0" y="72" width="390" height="46" rx="0" fill="#0d142c" opacity="1"/><rect x="10" y="80" width="118" height="38" rx="9" fill="#121a36" stroke="#2a3566" stroke-width="1" opacity="1"/><text x="24" y="104" font-size="12" fill="#e8edff" text-anchor="start" font-weight="700">📖 Discover</text><text x="149" y="104" font-size="12" fill="#9aa6d6" text-anchor="start" font-weight="700">🧪 Explore</text><text x="274" y="104" font-size="12" fill="#9aa6d6" text-anchor="start" font-weight="700">🎯 Challenge</text><text x="20" y="150" font-size="15" fill="#28e0ff" text-anchor="start" font-weight="700">Discover</text><text x="20" y="176" font-size="13" fill="#e8edff" text-anchor="start" font-weight="400">A JOIN stitches tables together on a</text><text x="20" y="196" font-size="13" fill="#e8edff" text-anchor="start" font-weight="400">shared key — turning IDs into names.</text><text x="20" y="216" font-size="13" fill="#e8edff" text-anchor="start" font-weight="400">INNER JOIN keeps only matches; LEFT</text><text x="20" y="236" font-size="13" fill="#e8edff" text-anchor="start" font-weight="400">JOIN keeps all left rows.</text><rect x="20" y="258" width="350" height="90" rx="12" fill="#070f24" stroke="#2a3566" stroke-width="1" opacity="1"/><text x="36" y="290" font-size="13" fill="#28e0ff" text-anchor="start" font-weight="700">orders  ⨝  customers</text><text x="36" y="318" font-size="12" fill="#9aa6d6" text-anchor="start" font-weight="400">→  order + buyer name</text><rect x="20" y="366" width="350" height="70" rx="10" fill="#0e1530" stroke="#2a3566" stroke-width="1" opacity="1"/><text x="36" y="396" font-size="12" fill="#e8edff" text-anchor="start" font-weight="400">🛠️ Broadcast joins ship small tables</text><text x="36" y="414" font-size="12" fill="#e8edff" text-anchor="start" font-weight="400">to every node — watch for skew.</text><rect x="20" y="460" width="200" height="48" rx="10" fill="url(#acc)" opacity="1"/><text x="120" y="490" font-size="12" fill="#04221a" text-anchor="middle" font-weight="700">Try it in the sandbox →</text>
<rect x="0" y="824" width="390" height="20" fill="#000" opacity="0.0"/>
<text x="380" y="836" font-size="9" fill="#46507a" text-anchor="end">mockup · node detail 390×844</text>
</svg>