<svg xmlns="http://www.w3.org/2000/svg" viewBox="0 0 390 844" width="390" height="844" font-family="Segoe UI,system-ui,sans-serif">
<defs>
<linearGradient id="bg" x1="0" y1="0" x2="0" y2="1"><stop offset="0" stop-color="#13205a"/><stop offset="1" stop-color="#070b18"/></linearGradient>
<linearGradient id="acc" x1="0" y1="0" x2="1" y2="0"><stop offset="0" stop-color="#28e0ff"/><stop offset="1" stop-color="#7c5cff"/></linearGradient>
<linearGradient id="title" x1="0" y1="0" x2="1" y2="0"><stop offset="0" stop-color="#28e0ff"/><stop offset="1" stop-color="#ff9d4a"/></linearGradient>
</defs>
<rect x="0" y="0" width="390" height="844" rx="22" fill="url(#bg)"/>
<rect x="1" y="1" width="388" height="842" rx="22" fill="none" stroke="#33406e" stroke-width="2"/>
<rect x="0" y="0" width="390" height="844" rx="0" fill="#0d142c" opacity="1"/><rect x="0" y="0" width="390" height="72" rx="0" fill="#15224a" opacity="1"/><text x="18" y="46" font-size="26" fill="#e8edff" text-anchor="start" font-weight="400">🔗</text><text x="54" y="44" font-size="16" fill="#e8edff" text-anchor="start" font-weight="800">JOINS — Challenge</text><rect x="340" y="16" width="40" height="40" rx="9" fill="#0d142c" stroke="#2a3566" stroke-width="1" opacity="1"/><text x="360" y="42" font-size="20" fill="#9aa6d6" text-anchor="middle" font-weight="400">✕</text><rect x="16" y="100" width="358" height="46" rx="10" fill="#2a2410" stroke="#ffce4a" stroke-width="1.5" opacity="1"/><text x="30" y="128" font-size="14" fill="#ffce4a" text-anchor="start" font-weight="800">🎉 Correct! Boss defeated!</text><rect x="16" y="160" width="358" height="260" rx="12" fill="#06101e" stroke="#2a3566" stroke-width="1" opacity="1"/><rect x="16" y="160" width="358" height="34" rx="12" fill="#1d2b57" opacity="1"/><text x="34" y="182" font-size="12" fill="#dfe6ff" text-anchor="start" font-weight="700">name</text><text x="220" y="182" font-size="12" fill="#dfe6ff" text-anchor="start" font-weight="700">total</text><text x="34" y="220" font-size="12.5" fill="#e8edff" text-anchor="start" font-weight="400">Aisha</text><text x="220" y="220" font-size="12.5" fill="#e8edff" text-anchor="start" font-weight="400">1450</text><line x1="16" y1="194" x2="374" y2="194" stroke="#2a3566"/><rect x="17" y="234" width="356" height="40" rx="0" fill="#0b1428" opacity="1"/><text x="34" y="260" font-size="12.5" fill="#e8edff" text-anchor="start" font-weight="400">Aisha</text><text x="220" y="260" font-size="12.5" fill="#e8edff" text-anchor="start" font-weight="400">800</text><line x1="16" y1="234" x2="374" y2="234" stroke="#2a3566"/><text x="34" y="300" font-size="12.5" fill="#e8edff" text-anchor="start" font-weight="400">Chen</text><text x="220" y="300" font-size="12.5" fill="#e8edff" text-anchor="start" font-weight="400">250</text><line x1="16" y1="274" x2="374" y2="274" stroke="#2a3566"/><rect x="17" y="314" width="356" height="40" rx="0" fill="#0b1428" opacity="1"/><text x="34" y="340" font-size="12.5" fill="#e8edff" text-anchor="start" font-weight="400">Emir</text><text x="220" y="340" font-size="12.5" fill="#e8edff" text-anchor="start" font-weight="400">47</text><line x1="16" y1="314" x2="374" y2="314" stroke="#2a3566"/><text x="34" y="380" font-size="12.5" fill="#e8edff" text-anchor="start" font-weight="400">Bilal</text><text x="220" y="380" font-size="12.5" fill="#e8edff" text-anchor="start" font-weight="400">1200</text><line x1="16" y1="354" x2="374" y2="354" stroke="#2a3566"/><rect x="180" y="86" width="196" height="52" rx="12" fill="#121a36" stroke="#ffce4a" stroke-width="1" opacity="1"/><text x="202" y="112" font-size="12" fill="#e8edff" text-anchor="start" font-weight="700">⭐ +120 XP (clean bonus!)</text><text x="202" y="128" font-size="10.5" fill="#9aa6d6" text-anchor="start" font-weight="400">Combo x4 · HIGH mode</text><text x="195.0" y="470" font-size="20" fill="#ffce4a" text-anchor="middle" font-weight="800">+120 XP</text>
<rect x="0" y="824" width="390" height="20" fill="#000" opacity="0.0"/>
<text x="380" y="836" font-size="9" fill="#46507a" text-anchor="end">mockup · results 390×844</text>
</svg>