<svg xmlns="http://www.w3.org/2000/svg" viewBox="0 0 768 1024" width="768" height="1024" font-family="Segoe UI,system-ui,sans-serif">
<defs>
<linearGradient id="bg" x1="0" y1="0" x2="0" y2="1"><stop offset="0" stop-color="#13205a"/><stop offset="1" stop-color="#070b18"/></linearGradient>
<linearGradient id="acc" x1="0" y1="0" x2="1" y2="0"><stop offset="0" stop-color="#28e0ff"/><stop offset="1" stop-color="#7c5cff"/></linearGradient>
<linearGradient id="title" x1="0" y1="0" x2="1" y2="0"><stop offset="0" stop-color="#28e0ff"/><stop offset="1" stop-color="#ff9d4a"/></linearGradient>
</defs>
<rect x="0" y="0" width="768" height="1024" rx="22" fill="url(#bg)"/>
<rect x="1" y="1" width="766" height="1022" rx="22" fill="none" stroke="#33406e" stroke-width="2"/>
<rect x="0" y="0" width="768" height="64" rx="0" fill="#0a0f22" stroke="#2a3566" stroke-width="1" opacity="1"/><rect x="16" y="15" width="34" height="34" rx="9" fill="#7c5cff" opacity="1"/><text x="33" y="37" font-size="16" fill="#e8edff" text-anchor="middle" font-weight="400">⛓️</text><text x="60" y="30" font-size="15" fill="#e8edff" text-anchor="start" font-weight="800">SQL ASCENDANT</text><text x="60" y="46" font-size="9" fill="#9aa6d6" text-anchor="start" font-weight="400">SKILL TREE</text><rect x="300" y="16" width="150" height="32" rx="9" fill="#161d3b" stroke="#2a3566" stroke-width="1" opacity="1"/><rect x="302" y="18" width="46" height="28" rx="7" fill="url(#acc)" opacity="1"/><text x="325" y="37" font-size="11" fill="#fff" text-anchor="middle" font-weight="700">Low</text><text x="372" y="37" font-size="11" fill="#9aa6d6" text-anchor="middle" font-weight="400">Med</text><text x="420" y="37" font-size="11" fill="#9aa6d6" text-anchor="middle" font-weight="400">High</text><rect x="470" y="12" width="50" height="40" rx="10" fill="#11182f" stroke="#2a3566" stroke-width="1" opacity="1"/><text x="495" y="32" font-size="14" fill="#e8edff" text-anchor="middle" font-weight="800">2</text><text x="495" y="46" font-size="7" fill="#9aa6d6" text-anchor="middle" font-weight="400">Mastered</text><rect x="526" y="12" width="50" height="40" rx="10" fill="#11182f" stroke="#2a3566" stroke-width="1" opacity="1"/><text x="551" y="32" font-size="14" fill="#e8edff" text-anchor="middle" font-weight="800">9%</text><text x="551" y="46" font-size="7" fill="#9aa6d6" text-anchor="middle" font-weight="400">Complete</text><rect x="582" y="12" width="50" height="40" rx="10" fill="#11182f" stroke="#2a3566" stroke-width="1" opacity="1"/><text x="607" y="32" font-size="14" fill="#e8edff" text-anchor="middle" font-weight="800">3🔥</text><text x="607" y="46" font-size="7" fill="#9aa6d6" text-anchor="middle" font-weight="400">Combo</text><rect x="648" y="11" width="42" height="42" rx="12" fill="#ffce4a" opacity="1"/><text x="669" y="38" font-size="16" fill="#1a1300" text-anchor="middle" font-weight="800">3</text><rect x="696" y="15" width="30" height="34" rx="8" fill="#161d3b" stroke="#2a3566" stroke-width="1" opacity="1"/><text x="711" y="37" font-size="14" fill="#e8edff" text-anchor="middle" font-weight="400">⇄</text><rect x="730" y="15" width="30" height="34" rx="8" fill="#161d3b" stroke="#2a3566" stroke-width="1" opacity="1"/><text x="745" y="37" font-size="12" fill="#e8edff" text-anchor="middle" font-weight="400">🏆</text><path d="M384.0,160 C384.0,220 384.0,220 384.0,290" stroke="#28e0ff" stroke-width="3" fill="none" stroke-dasharray="9 7"/><path d="M384.0,310 C384.0,370 250,380 250,440" stroke="#28e0ff" stroke-width="3" fill="none" stroke-dasharray="9 7"/><path d="M384.0,310 C384.0,370 518,380 518,440" stroke="#33406e" stroke-width="3" fill="none"/><path d="M250,460 C250,520 180,530 180,590" stroke="#33406e" stroke-width="3" fill="none"/><path d="M250,460 C250,520 330,530 330,590" stroke="#33406e" stroke-width="3" fill="none"/><circle cx="384.0" cy="128" r="40" fill="none" stroke="#ffce4a" stroke-width="2" opacity="0.5"/><circle cx="384.0" cy="128" r="36" fill="#16204a" stroke="#ffce4a" stroke-width="2.5"/><text x="384.0" y="135" font-size="20" fill="#e8edff" text-anchor="middle" font-weight="400">🗄️</text><text x="384.0" y="180" font-size="10" fill="#e8edff" text-anchor="middle" font-weight="700">Tables</text><circle cx="384.0" cy="300" r="40" fill="none" stroke="#ffce4a" stroke-width="2" opacity="0.5"/><circle cx="384.0" cy="300" r="36" fill="#16204a" stroke="#ffce4a" stroke-width="2.5"/><text x="384.0" y="307" font-size="20" fill="#e8edff" text-anchor="middle" font-weight="400">🧱</text><text x="384.0" y="352" font-size="10" fill="#e8edff" text-anchor="middle" font-weight="700">Rows & Columns</text><circle cx="250" cy="450" r="40" fill="none" stroke="#28e0ff" stroke-width="2" opacity="0.5"/><circle cx="250" cy="450" r="36" fill="#16204a" stroke="#28e0ff" stroke-width="2.5"/><text x="250" y="457" font-size="20" fill="#e8edff" text-anchor="middle" font-weight="400">🎯</text><text x="250" y="502" font-size="10" fill="#e8edff" text-anchor="middle" font-weight="700">SELECT</text><circle cx="518" cy="450" r="40" fill="none" stroke="#39406a" stroke-width="2" opacity="0.5"/><circle cx="518" cy="450" r="36" fill="#16204a" stroke="#39406a" stroke-width="2.5"/><text x="518" y="457" font-size="20" fill="#e8edff" text-anchor="middle" font-weight="400">➗</text><text x="518" y="502" font-size="10" fill="#9aa6d6" text-anchor="middle" font-weight="700">Aggregations</text><circle cx="180" cy="600" r="40" fill="none" stroke="#39406a" stroke-width="2" opacity="0.5"/><circle cx="180" cy="600" r="36" fill="#16204a" stroke="#39406a" stroke-width="2.5"/><text x="180" y="607" font-size="20" fill="#e8edff" text-anchor="middle" font-weight="400">🔍</text><text x="180" y="652" font-size="10" fill="#9aa6d6" text-anchor="middle" font-weight="700">WHERE</text><circle cx="330" cy="600" r="40" fill="none" stroke="#39406a" stroke-width="2" opacity="0.5"/><circle cx="330" cy="600" r="36" fill="#16204a" stroke="#39406a" stroke-width="2.5"/><text x="330" y="607" font-size="20" fill="#e8edff" text-anchor="middle" font-weight="400">↕️</text><text x="330" y="652" font-size="10" fill="#9aa6d6" text-anchor="middle" font-weight="700">ORDER BY</text><circle cx="470" cy="600" r="40" fill="none" stroke="#39406a" stroke-width="2" opacity="0.5"/><circle cx="470" cy="600" r="36" fill="#16204a" stroke="#39406a" stroke-width="2.5"/><text x="470" y="607" font-size="20" fill="#e8edff" text-anchor="middle" font-weight="400">🧬</text><text x="470" y="652" font-size="10" fill="#9aa6d6" text-anchor="middle" font-weight="700">DISTINCT</text><rect x="20" y="944" width="300" height="40" rx="20" fill="#121a36" stroke="#2a3566" stroke-width="1" opacity="1"/><text x="34" y="969" font-size="11" fill="#e8edff" text-anchor="start" font-weight="400">🧭 Recommended next: SELECT · +30 XP</text><rect x="710" y="824" width="44" height="44" rx="10" fill="#121a36" stroke="#2a3566" stroke-width="1" opacity="1"/><text x="732" y="852" font-size="16" fill="#e8edff" text-anchor="middle" font-weight="400">＋</text><rect x="710" y="876" width="44" height="44" rx="10" fill="#121a36" stroke="#2a3566" stroke-width="1" opacity="1"/><text x="732" y="904" font-size="16" fill="#e8edff" text-anchor="middle" font-weight="400">－</text><rect x="710" y="928" width="44" height="44" rx="10" fill="#121a36" stroke="#2a3566" stroke-width="1" opacity="1"/><text x="732" y="956" font-size="16" fill="#e8edff" text-anchor="middle" font-weight="400">⊙</text>
<rect x="0" y="1004" width="768" height="20" fill="#000" opacity="0.0"/>
<text x="758" y="1016" font-size="9" fill="#46507a" text-anchor="end">mockup · tablet tree 768×1024</text>
</svg>